<?xml version="1.0" encoding="UTF-8" standalone="no"?>
<!-- Generator: Adobe Illustrator 15.0.2, SVG Export Plug-In . SVG Version: 6.00 Build 0)  -->

<svg
   xmlns:osb="http://www.openswatchbook.org/uri/2009/osb"
   xmlns:dc="http://purl.org/dc/elements/1.1/"
   xmlns:cc="http://creativecommons.org/ns#"
   xmlns:rdf="http://www.w3.org/1999/02/22-rdf-syntax-ns#"
   xmlns:svg="http://www.w3.org/2000/svg"
   xmlns="http://www.w3.org/2000/svg"
   xmlns:sodipodi="http://sodipodi.sourceforge.net/DTD/sodipodi-0.dtd"
   xmlns:inkscape="http://www.inkscape.org/namespaces/inkscape"
   version="1.1"
   id="Layer_1"
   x="0px"
   y="0px"
   width="128"
   height="128"
   viewBox="0 0 128 128"
   enable-background="new 0 0 512 477.438"
   xml:space="preserve"
   inkscape:version="0.91 r13725"
   sodipodi:docname="icon.svg"
   inkscape:export-filename="/home/thedrhax/Desktop/icon.png"
   inkscape:export-xdpi="360"
   inkscape:export-ydpi="360"><metadata
     id="metadata4308"><rdf:RDF><cc:Work
         rdf:about=""><dc:format>image/svg+xml</dc:format><dc:type
           rdf:resource="http://purl.org/dc/dcmitype/StillImage" /><dc:title></dc:title></cc:Work></rdf:RDF></metadata><defs
     id="defs4306"><linearGradient
       id="linearGradient5716"
       osb:paint="solid"><stop
         style="stop-color:#000000;stop-opacity:1;"
         offset="0"
         id="stop5718" /></linearGradient></defs><sodipodi:namedview
     pagecolor="#ffffff"
     bordercolor="#666666"
     borderopacity="1"
     objecttolerance="10"
     gridtolerance="10"
     guidetolerance="10"
     inkscape:pageopacity="0"
     inkscape:pageshadow="2"
     inkscape:window-width="1366"
     inkscape:window-height="704"
     id="namedview4304"
     showgrid="false"
     inkscape:zoom="2.8284271"
     inkscape:cx="50.326001"
     inkscape:cy="63.361496"
     inkscape:window-x="0"
     inkscape:window-y="27"
     inkscape:window-maximized="1"
     inkscape:current-layer="Layer_1" /><g
     id="g4167"
     style="stroke:#000000;stroke-width:0.5;stroke-miterlimit:4;stroke-dasharray:none;stroke-opacity:1"
     transform="matrix(1.1377778,0,0,1.1377778,-8.8177786,-8.866958)"><path
       inkscape:connector-curvature="0"
       id="path4139-1"
       d="m 63.999999,11.079105 a 56,56 0 0 0 -56,56 56,56 0 0 0 30.480469,49.841795 l 3.666015,-7.1582 a 48,48 0 0 1 -26.146484,-42.683595 48,48 0 0 1 48,-48 48,48 0 0 1 48.000001,48 48,48 0 0 1 -26.126954,42.720705 l 3.623047,7.07617 A 56,56 0 0 0 120,67.079105 a 56,56 0 0 0 -56.000001,-56 z m 0,16 a 40,40 0 0 0 -40,40 40,40 0 0 0 21.771484,35.601565 l 3.660157,-7.146495 a 32,32 0 0 1 -17.431641,-28.45507 32,32 0 0 1 32,-32 32,32 0 0 1 32,32 32,32 0 0 1 -17.417969,28.48047 l 3.628907,7.089845 A 40,40 0 0 0 104,67.079105 a 40,40 0 0 0 -40.000001,-40 z"
       style="color:#000000;clip-rule:nonzero;display:inline;overflow:visible;visibility:visible;opacity:1;isolation:auto;mix-blend-mode:normal;color-interpolation:sRGB;color-interpolation-filters:linearRGB;solid-color:#000000;solid-opacity:1;fill:#ff0000;fill-opacity:1;fill-rule:nonzero;stroke:#000000;stroke-width:0.5;stroke-linecap:round;stroke-linejoin:miter;stroke-miterlimit:4;stroke-dasharray:none;stroke-dashoffset:0;stroke-opacity:1;color-rendering:auto;image-rendering:auto;shape-rendering:auto;text-rendering:auto;enable-background:accumulate" /><path
       sodipodi:nodetypes="ccccccccccccccccccccccccccc"
       inkscape:connector-curvature="0"
       id="path4941"
       d="m 56.597562,69.184105 -2.55008,7.53776 2.629659,0.0306 0,2.27077 0,2.27075 -8.838569,0 -8.838572,0 0,-2.27075 0,-2.27077 1.728191,0 1.728199,0 11.701982,-30.3464 9.8822,17.63962 9.837599,-17.63961 11.70183,30.34639 1.71,0 1.709999,0 0,2.27077 0,2.27075 -8.820309,0 -8.8203,0 0,-2.27075 0,-2.27077 2.629651,-0.011 -2.572621,-7.59958 -7.403709,12.45205 z"
       style="fill:#ff0000;fill-opacity:1;stroke:#000000;stroke-width:0.5;stroke-linecap:butt;stroke-linejoin:miter;stroke-miterlimit:4;stroke-dasharray:none;stroke-opacity:1" /></g></svg>