<?xml version="1.0" encoding="UTF-8" standalone="no"?>
<!-- Generator: Adobe Illustrator 15.0.2, SVG Export Plug-In . SVG Version: 6.00 Build 0)  -->

<svg
   xmlns:dc="http://purl.org/dc/elements/1.1/"
   xmlns:cc="http://creativecommons.org/ns#"
   xmlns:rdf="http://www.w3.org/1999/02/22-rdf-syntax-ns#"
   xmlns:svg="http://www.w3.org/2000/svg"
   xmlns="http://www.w3.org/2000/svg"
   xmlns:sodipodi="http://sodipodi.sourceforge.net/DTD/sodipodi-0.dtd"
   xmlns:inkscape="http://www.inkscape.org/namespaces/inkscape"
   version="1.1"
   id="Layer_1"
   x="0px"
   y="0px"
   width="512px"
   height="477.438px"
   viewBox="0 0 512 477.438"
   enable-background="new 0 0 512 477.438"
   xml:space="preserve"
   inkscape:version="0.91 r13725"
   sodipodi:docname="Icon.svg"><metadata
     id="metadata4308"><rdf:RDF><cc:Work
         rdf:about=""><dc:format>image/svg+xml</dc:format><dc:type
           rdf:resource="http://purl.org/dc/dcmitype/StillImage" /><dc:title></dc:title></cc:Work></rdf:RDF></metadata><defs
     id="defs4306" /><sodipodi:namedview
     pagecolor="#ffffff"
     bordercolor="#666666"
     borderopacity="1"
     objecttolerance="10"
     gridtolerance="10"
     guidetolerance="10"
     inkscape:pageopacity="0"
     inkscape:pageshadow="2"
     inkscape:window-width="1366"
     inkscape:window-height="704"
     id="namedview4304"
     showgrid="false"
     inkscape:zoom="0.96"
     inkscape:cx="256"
     inkscape:cy="238.71899"
     inkscape:window-x="0"
     inkscape:window-y="27"
     inkscape:window-maximized="1"
     inkscape:current-layer="Layer_1" /><path
     style="fill:#ff0000;stroke-width:1;stroke-miterlimit:4;stroke-dasharray:none;stroke:none;stroke-opacity:1;stroke-linejoin:miter;stroke-linecap:butt"
     d="m 245.05486,285.17806 c -6.38493,-10.73824 -11.08122,-18.52636 -11.12418,-18.44788 -0.1023,0.18643 -7.65024,22.37869 -7.65024,22.49253 0,0.0503 1.77501,0.0914 3.94449,0.0914 l 3.94449,0 0,6.77592 0,6.77589 -26.51571,0 -26.51571,0 0,-6.77589 0,-6.77592 5.18457,0 5.1846,0 17.51796,-45.25443 c 9.63489,-24.88994 17.54949,-45.27432 17.58798,-45.29867 0.0384,-0.0246 6.69735,11.84553 14.79744,26.37743 11.69604,20.98323 14.7525,26.38816 14.84916,26.25888 0.0669,-0.0896 6.71892,-11.97933 14.7822,-26.42171 8.06325,-14.44239 14.69202,-26.23896 14.7306,-26.21457 0.0387,0.0245 7.95309,20.40881 17.5878,45.2987 l 17.51769,45.25437 5.13,0 5.13,0 0,6.77592 0,6.77589 -26.46093,0 -26.4609,0 0,-6.77589 0,-6.77592 3.94446,0 c 2.16948,0 3.94449,-0.0153 3.94449,-0.0328 0,-0.0585 -7.68726,-22.64561 -7.71786,-22.677 -0.015,-0.0153 -5.00436,8.33649 -11.08464,18.5626 -6.08028,10.22618 -11.08719,18.59349 -11.12649,18.59408 -0.0393,0.001 -5.04387,-8.36159 -11.12127,-18.58263 z"
     id="path4941"
     inkscape:connector-curvature="0" /><path
     d="m 409.6,256 c 0,-84.862 -68.737,-153.6 -153.6,-153.6 -84.863,0 -153.6,68.738 -153.6,153.6 0,56.825 30.85,106.237 76.675,132.862 l 25.85,-44.537 C 174.338,326.525 153.6,293.888 153.6,256 c 0,-56.575 45.825,-102.4 102.4,-102.4 56.575,0 102.4,45.825 102.4,102.4 0,37.888 -20.738,70.525 -51.325,88.2 l 25.85,44.537 C 378.75,362.237 409.6,312.825 409.6,256 Z M 256,0 C 114.562,0 0,114.562 0,256 0,350.6 51.456,433.025 127.875,477.312 l 25.6,-44.287 C 92.419,397.7 51.2,331.65 51.2,256 51.2,142.85 142.85,51.2 256,51.2 c 113.15,0 204.8,91.65 204.8,204.8 0,75.65 -41.225,141.7 -102.274,177.15 l 25.6,44.287 C 460.55,433.025 512,350.6 512,256 512,114.562 397.312,0 256,0 Z"
     id="path4302"
     inkscape:connector-curvature="0"
     sodipodi:nodetypes="sssccsssccsssccsssccss"
     style="fill:#ff0000;stroke:none;stroke-opacity:1;stroke-width:4;stroke-miterlimit:4;stroke-dasharray:none" /></svg>