<?xml version="1.0" encoding="UTF-8" standalone="no"?>
<!-- Created with Inkscape (http://www.inkscape.org/) -->

<svg
   xmlns:dc="http://purl.org/dc/elements/1.1/"
   xmlns:cc="http://creativecommons.org/ns#"
   xmlns:rdf="http://www.w3.org/1999/02/22-rdf-syntax-ns#"
   xmlns:svg="http://www.w3.org/2000/svg"
   xmlns="http://www.w3.org/2000/svg"
   xmlns:sodipodi="http://sodipodi.sourceforge.net/DTD/sodipodi-0.dtd"
   xmlns:inkscape="http://www.inkscape.org/namespaces/inkscape"
   id="svg2"
   version="1.1"
   inkscape:version="0.92.3 (2405546, 2018-03-11)"
   width="96"
   height="96"
   viewBox="0 0 120 120"
   sodipodi:docname="ic_menu_delete-xhdpi2.svg">
  <metadata
     id="metadata8">
    <rdf:RDF>
      <cc:Work
         rdf:about="">
        <dc:format>image/svg+xml</dc:format>
        <dc:type
           rdf:resource="http://purl.org/dc/dcmitype/StillImage" />
        <dc:title></dc:title>
      </cc:Work>
    </rdf:RDF>
  </metadata>
  <defs
     id="defs6" />
  <sodipodi:namedview
     pagecolor="#ffffff"
     bordercolor="#666666"
     borderopacity="1"
     objecttolerance="10"
     gridtolerance="10"
     guidetolerance="10"
     inkscape:pageopacity="0"
     inkscape:pageshadow="2"
     inkscape:window-width="1360"
     inkscape:window-height="700"
     id="namedview4"
     showgrid="false"
     inkscape:zoom="2.7812867"
     inkscape:cx="-37.931707"
     inkscape:cy="51.674426"
     inkscape:window-x="0"
     inkscape:window-y="32"
     inkscape:window-maximized="1"
     inkscape:current-layer="svg2" />
  <path
     inkscape:connector-curvature="0"
     d="m 32.452857,92.262361 c 0,5.116449 4.232572,9.302639 9.405714,9.302639 h 37.622858 c 5.173142,0 9.405714,-4.18619 9.405714,-9.302639 V 45.749167 c 0,-5.116452 -4.232572,-9.302639 -9.405714,-9.302639 H 41.858571 c -5.173142,0 -9.405714,4.186187 -9.405714,9.302639 z M 88.887143,22.492569 H 77.13 l -3.339029,-3.302436 c -0.846514,-0.837238 -2.069257,-1.348883 -3.292,-1.348883 H 50.841029 c -1.222743,0 -2.445486,0.511645 -3.292,1.348883 L 44.21,22.492569 H 32.452857 c -2.586571,0 -4.702857,2.093094 -4.702857,4.65132 0,2.558226 2.116286,4.651319 4.702857,4.651319 h 56.434286 c 2.586571,0 4.702857,-2.093093 4.702857,-4.651319 0,-2.558226 -2.116286,-4.65132 -4.702857,-4.65132 z"
     id="path4-3"
     style="stroke-width:4.67701721;fill:#ffffff" />
</svg>
