<?xml version="1.0" encoding="UTF-8" standalone="no"?>
<svg
   xmlns:dc="http://purl.org/dc/elements/1.1/"
   xmlns:cc="http://creativecommons.org/ns#"
   xmlns:rdf="http://www.w3.org/1999/02/22-rdf-syntax-ns#"
   xmlns:svg="http://www.w3.org/2000/svg"
   xmlns="http://www.w3.org/2000/svg"
   xmlns:sodipodi="http://sodipodi.sourceforge.net/DTD/sodipodi-0.dtd"
   xmlns:inkscape="http://www.inkscape.org/namespaces/inkscape"
   fill="#000000"
   height="96"
   viewBox="0 0 24 24"
   width="96"
   id="svg2"
   version="1.1"
   inkscape:version="0.92.3 (2405546, 2018-03-11)"
   sodipodi:docname="ic_mail_outline-xhdpi2.svg">
  <metadata
     id="metadata12">
    <rdf:RDF>
      <cc:Work
         rdf:about="">
        <dc:format>image/svg+xml</dc:format>
        <dc:type
           rdf:resource="http://purl.org/dc/dcmitype/StillImage" />
        <dc:title></dc:title>
      </cc:Work>
    </rdf:RDF>
  </metadata>
  <defs
     id="defs10" />
  <sodipodi:namedview
     pagecolor="#ffffff"
     bordercolor="#666666"
     borderopacity="1"
     objecttolerance="10"
     gridtolerance="10"
     guidetolerance="10"
     inkscape:pageopacity="0"
     inkscape:pageshadow="2"
     inkscape:window-width="1360"
     inkscape:window-height="700"
     id="namedview8"
     showgrid="false"
     inkscape:zoom="2.4583333"
     inkscape:cx="-20.135593"
     inkscape:cy="33.027209"
     inkscape:window-x="0"
     inkscape:window-y="32"
     inkscape:window-maximized="1"
     inkscape:current-layer="svg2" />
  <path
     d="M0 0h24v24H0z"
     fill="none"
     id="path4" />
  <path
     inkscape:connector-curvature="0"
     d="M 20,4 H 4 C 2.9,4 2,4.9 2,6 v 12 c 0,1.1 0.9,2 2,2 h 16 c 1.1,0 2,-0.9 2,-2 V 6 C 22,4.9 21.1,4 20,4 Z m -0.4,4.25 -6.54,4.09 c -0.65,0.41 -1.47,0.41 -2.12,0 L 4.4,8.25 C 4.15,8.09 4,7.82 4,7.53 4,6.86 4.73,6.46 5.3,6.81 L 12,11 18.7,6.81 C 19.27,6.46 20,6.86 20,7.53 20,7.82 19.85,8.09 19.6,8.25 Z"
     id="path4-3"
     style="stroke-width:1;fill:#ffffff" />
</svg>
