<?xml version="1.0" encoding="UTF-8" standalone="no"?>
<!-- Created with Inkscape (http://www.inkscape.org/) -->

<svg
   xmlns:dc="http://purl.org/dc/elements/1.1/"
   xmlns:cc="http://creativecommons.org/ns#"
   xmlns:rdf="http://www.w3.org/1999/02/22-rdf-syntax-ns#"
   xmlns:svg="http://www.w3.org/2000/svg"
   xmlns="http://www.w3.org/2000/svg"
   xmlns:sodipodi="http://sodipodi.sourceforge.net/DTD/sodipodi-0.dtd"
   xmlns:inkscape="http://www.inkscape.org/namespaces/inkscape"
   id="svg2"
   version="1.1"
   inkscape:version="0.91 r13725"
   width="24"
   height="24"
   viewBox="0 0 24 24"
   sodipodi:docname="ic_menu_share.svg">
  <metadata
     id="metadata8">
    <rdf:RDF>
      <cc:Work
         rdf:about="">
        <dc:format>image/svg+xml</dc:format>
        <dc:type
           rdf:resource="http://purl.org/dc/dcmitype/StillImage" />
        <dc:title></dc:title>
      </cc:Work>
    </rdf:RDF>
  </metadata>
  <defs
     id="defs6" />
  <sodipodi:namedview
     pagecolor="#ffffff"
     bordercolor="#666666"
     borderopacity="1"
     objecttolerance="10"
     gridtolerance="10"
     guidetolerance="10"
     inkscape:pageopacity="0"
     inkscape:pageshadow="2"
     inkscape:window-width="1366"
     inkscape:window-height="704"
     id="namedview4"
     showgrid="false"
     inkscape:zoom="4.110026"
     inkscape:cx="38.502786"
     inkscape:cy="59.513385"
     inkscape:window-x="0"
     inkscape:window-y="27"
     inkscape:window-maximized="1"
     inkscape:current-layer="svg2" />
  <path
     style="fill:#ff0000;stroke:#000000;stroke-width:0.13974331;stroke-miterlimit:4;stroke-dasharray:none;stroke-opacity:1"
     d="m 18.038183,23.560437 c -1.296867,-0.648472 -2.163512,-2.051462 -2.169091,-3.51151 -0.0034,-0.895137 -0.366498,-1.167779 -4.281186,-3.214912 L 7.3104588,14.59719 6.1939401,15.174566 C 4.8080088,15.891262 3.9030067,15.903155 2.5857802,15.221963 0.44575725,14.115314 -0.05073958,11.128108 1.6418286,9.5426155 3.0930267,8.183217 4.2758669,7.9593066 5.861498,8.7438086 l 1.4142742,0.6997309 4.2518198,-2.2555839 4.25182,-2.2555744 0.199817,-1.4900598 c 0.5186,-3.86725862 5.612714,-4.6475264 7.100173,-1.0875379 0.638016,1.5269866 0.169792,3.2582458 -1.165207,4.3083524 C 20.790358,7.5471526 18.461829,7.6054691 17.541578,6.7726545 16.918306,6.2086012 16.773013,6.238241 14.719203,7.3484761 7.9522719,11.006488 8.1865878,10.838567 8.1917719,12.026382 c 0.00458,1.053521 0.2052406,1.21367 4.2796391,3.415925 3.811357,2.060083 4.338157,2.255717 4.859075,1.80453 1.762792,-1.526843 5.105658,-0.518869 5.860056,1.766984 1.004818,3.044635 -2.30864,5.968517 -5.152359,4.546587 z"
     id="path4138"
     inkscape:connector-curvature="0" />
</svg>
