<?xml version="1.0" encoding="UTF-8" standalone="no"?>
<!-- Created with Inkscape (http://www.inkscape.org/) -->

<svg
   xmlns:dc="http://purl.org/dc/elements/1.1/"
   xmlns:cc="http://creativecommons.org/ns#"
   xmlns:rdf="http://www.w3.org/1999/02/22-rdf-syntax-ns#"
   xmlns:svg="http://www.w3.org/2000/svg"
   xmlns="http://www.w3.org/2000/svg"
   xmlns:sodipodi="http://sodipodi.sourceforge.net/DTD/sodipodi-0.dtd"
   xmlns:inkscape="http://www.inkscape.org/namespaces/inkscape"
   id="svg2"
   version="1.1"
   inkscape:version="0.91 r13725"
   width="120"
   height="120"
   viewBox="0 0 120 120"
   sodipodi:docname="ic_settings.svg">
  <metadata
     id="metadata8">
    <rdf:RDF>
      <cc:Work
         rdf:about="">
        <dc:format>image/svg+xml</dc:format>
        <dc:type
           rdf:resource="http://purl.org/dc/dcmitype/StillImage" />
        <dc:title></dc:title>
      </cc:Work>
    </rdf:RDF>
  </metadata>
  <defs
     id="defs6" />
  <sodipodi:namedview
     pagecolor="#ffffff"
     bordercolor="#666666"
     borderopacity="1"
     objecttolerance="10"
     gridtolerance="10"
     guidetolerance="10"
     inkscape:pageopacity="0"
     inkscape:pageshadow="2"
     inkscape:window-width="1366"
     inkscape:window-height="704"
     id="namedview4"
     showgrid="false"
     inkscape:zoom="4.110026"
     inkscape:cx="70.294251"
     inkscape:cy="60.070006"
     inkscape:window-x="0"
     inkscape:window-y="27"
     inkscape:window-maximized="1"
     inkscape:current-layer="svg2" />
  <path
     style="fill:#ff0000;stroke:#000000;stroke-opacity:1;stroke-width:0.5;stroke-miterlimit:4;stroke-dasharray:none"
     d="m 51.405679,109.95512 c 0,-1.65305 -2.697164,-8.68013 -3.232734,-9.69721 C 46.76047,97.575538 45.849832,95.239656 42.187967,92.928023 37.102598,89.717769 31.1976,89.616468 22.454786,92.076692 l -9.306901,-15.729663 4.75573,-4.87031 C 22.076034,67.203774 22.697171,65.783007 22.96774,59.893234 23.253874,53.664617 22.932327,52.80708 18.513067,48.012741 15.89338,45.170716 13.75,42.419409 13.75,41.898725 l 8.807566,-15.445517 6.845626,1.947411 c 6.657534,1.893904 6.997692,1.866741 12.380002,-0.988568 4.987979,-2.646116 5.736351,-3.655821 7.580179,-10.22717 L 51.409176,9.894 l 17.9516,0 1.782117,7.411968 c 1.348427,5.608217 2.609228,7.203099 6.770337,9.829892 4.977689,3.142278 11.169079,3.187474 19.860084,0.741828 l 9.078806,15.775283 -4.90143,5.019518 c -4.3971,4.503036 -4.912771,5.697747 -5.011645,11.611015 -0.09951,5.95125 0.347336,7.090735 4.600375,11.731285 2.59082,2.826884 4.71058,5.565802 4.71058,6.086486 l -8.807566,15.445518 -6.845627,-1.947412 c -6.657533,-1.893904 -6.997691,-1.866741 -12.380001,0.988568 -4.979625,2.641685 -5.737944,3.661497 -7.565263,10.174011 L 68.620652,110 51.405679,110 Z M 70.506282,89.880767 C 77.072672,88.057607 87.707507,77.324731 89.729855,70.479975 93.471376,57.816566 90.841868,47.023239 81.798638,37.924761 74.903977,30.98798 69.611766,28.763943 60,28.763943 c -9.611766,0 -14.903977,2.224037 -21.798637,9.160818 -9.043231,9.098478 -11.672739,19.891805 -7.931218,32.555214 1.888843,6.392903 12.720795,17.629704 18.63408,19.330536 5.795254,1.666884 15.735129,1.699212 21.602057,0.07026 z M 47.814556,84.937733 C 37.258389,79.576691 31.962466,70.117989 32.733882,58.003125 33.324421,48.728878 37.385314,41.765789 45.231886,36.573172 49.779199,33.563904 51.65897,33.125 60,33.125 c 8.34103,0 10.220801,0.438904 14.768114,3.448172 2.865797,1.896495 6.762218,5.792917 8.658714,8.658714 C 86.436096,49.779199 86.875,51.65897 86.875,60 c 0,8.34103 -0.438904,10.220801 -3.448172,14.768114 C 78.05213,82.88983 71.251424,86.733421 61.388144,87.223835 54.834119,87.549709 52.026606,87.076859 47.814556,84.937733 Z M 69.891781,74.06519 c 10.61392,-7.773281 9.31037,-23.24536 -2.480637,-29.443144 -11.539638,-6.065654 -26.039638,4.104833 -24.443143,17.144735 1.585717,12.951875 16.641214,19.829018 26.92378,12.298409 z"
     id="path4138"
     inkscape:connector-curvature="0"
     sodipodi:nodetypes="sssccsssccsssccssccsssccsssccsssssssssssssssssssssss" />
</svg>
